<?xml version="1.0" encoding="UTF-8"?><svg id="Layer_1" xmlns="http://www.w3.org/2000/svg" viewBox="0 0 333.79 41.46"><defs><style>.cls-1{fill:#231f20;stroke-width:0px;}</style></defs><path class="cls-1" d="M18.33,40.87v-14.89H6.81v14.89H0V5.64h6.81v14.36h11.52V5.64h6.81v35.23h-6.81Z"/><path class="cls-1" d="M55.62,33.3c-.56,4.76-5.32,8.15-11.57,8.15-7.84,0-12.33-4.39-12.33-12.04v-4.32c0-7.06,4.88-11.72,12.21-11.72s11.69,4.69,11.69,11.91v3.71h-17.36v1.46c0,3.52,2.27,5.81,5.76,5.81,2.69,0,4.81-1.22,5.3-2.98h6.3ZM38.26,24.73h10.91c0-3.86-2-6.18-5.37-6.18s-5.54,2.32-5.54,6.18Z"/><path class="cls-1" d="M63.01,40.87v-5.32h8.54V9.01h-8.11V3.69h14.79v31.86h8.03v5.32h-23.27Z"/><path class="cls-1" d="M93.92,40.87v-5.32h8.54V9.01h-8.11V3.69h14.79v31.86h8.03v5.32h-23.27Z"/><path class="cls-1" d="M123.83,29.49v-4.15c0-7.35,4.79-11.96,12.38-11.96s12.38,4.61,12.38,11.96v4.15c0,7.35-4.79,11.96-12.38,11.96s-12.38-4.61-12.38-11.96ZM130.4,25.61v3.61c0,4.15,2.22,6.76,5.81,6.76s5.81-2.61,5.81-6.76v-3.61c0-4.17-2.22-6.76-5.81-6.76s-5.81,2.59-5.81,6.76Z"/><path class="cls-1" d="M197.83,20.12l-3.69,20.75h-6.1l-5.47-35.23h6.3l1.42,12.16,1.39,13.92h.39l3.27-18.02h5.37l3.27,18.02h.39l1.39-13.92,1.42-12.16h6.3l-5.47,35.23h-6.1l-3.69-20.75h-.39Z"/><path class="cls-1" d="M216.85,3.69h6.52v14.84h.39c1.29-3.22,4.3-5.08,8.23-5.08,5.83,0,9.06,3.56,9.06,10.06v17.36h-6.69v-15.72c0-3.93-1.66-5.86-5.05-5.86s-5.79,2.39-5.79,6.1v15.48h-6.67V3.69Z"/><path class="cls-1" d="M248.46,40.87v-5.32h8.64v-16.26h-8.2v-5.35h14.7v21.61h8.13v5.32h-23.27ZM255.66,4.22c0-2.54,1.83-4.22,4.57-4.22s4.59,1.68,4.59,4.22-1.86,4.22-4.59,4.22-4.57-1.68-4.57-4.22Z"/><path class="cls-1" d="M291.72,6.25v7.96h10.03v5.35h-9.91v12.87c0,2.03,1.44,3.17,4,3.17.63,0,5.3-.02,5.59-.05v5.27c-.27.05-5.59.1-6.13.1-7.32,0-10.13-2.32-10.13-8.57v-12.79h-7.01v-5.35h7.01v-7.96h6.54Z"/><path class="cls-1" d="M333.79,33.3c-.56,4.76-5.32,8.15-11.57,8.15-7.84,0-12.33-4.39-12.33-12.04v-4.32c0-7.06,4.88-11.72,12.21-11.72s11.69,4.69,11.69,11.91v3.71h-17.36v1.46c0,3.52,2.27,5.81,5.76,5.81,2.69,0,4.81-1.22,5.3-2.98h6.3ZM316.43,24.73h10.91c0-3.86-2-6.18-5.37-6.18s-5.54,2.32-5.54,6.18Z"/></svg>